<svg width="64" height="64" viewBox="0 0 64 64" fill="none" xmlns="http://www.w3.org/2000/svg">
<path d="M33.6928 24.944C30.8692 25.7895 28.6277 28.4621 28.3382 31.2422C28.0913 33.5826 29.1566 35.7177 31.0515 36.6994C33.6611 38.0488 36.7278 36.371 36.9033 33.4421C36.9477 32.6805 36.8509 31.8367 36.5561 31.1414C35.9226 29.6355 35.22 28.1604 34.5116 26.6732C34.2383 26.0994 33.9641 25.5238 33.6928 24.944Z" fill="#3D5D91"/>
<path fill-rule="evenodd" clip-rule="evenodd" d="M0.491456 37.5558C3.55993 54.958 20.1536 66.577 37.5558 63.5086C54.958 60.4401 66.577 43.8464 63.5085 26.4442C60.4401 9.04203 43.8464 -2.57702 26.4442 0.491456C9.04202 3.55993 -2.57702 20.1536 0.491456 37.5558ZM38.8132 25.4666C39.3076 26.498 39.786 27.4961 40.2555 28.5008C41.2351 30.5925 41.6479 32.7679 41.1287 35.0557C39.7125 41.3222 32.0927 43.6729 27.1929 39.3583C23.7512 36.3297 22.9051 31.2548 25.1292 26.8991C26.3849 24.4247 28.4366 22.4448 30.9541 21.2781L31.7334 20.9068C31.6232 20.6245 31.5086 20.3458 31.3945 20.0684C31.1585 19.4947 30.9249 18.9271 30.7394 18.3466C29.8548 15.5591 30.7166 11.7133 33.1798 10.0769C35.6346 8.44845 38.2843 8.94731 40.441 10.7502C40.7405 11.0006 41.2135 11.5127 41.5708 11.9995C41.6357 12.073 41.6998 12.1481 41.7631 12.2248L43.3118 10.9691C43.6685 10.6798 44.1963 10.9704 44.1426 11.4266L43.4827 17.0334C43.4508 17.3038 43.213 17.5019 42.9414 17.4844L37.1464 17.1114C36.6814 17.0815 36.495 16.4964 36.8569 16.2029L38.4986 14.8718C38.2562 14.4477 37.9741 14.0414 37.6523 13.653C37.6233 13.6306 37.5957 13.609 37.5692 13.5883C37.2106 13.3079 37.0523 13.1841 36.4161 13.3041C35.2846 13.5199 34.6145 15.5971 34.9042 16.7058C35.1494 17.6459 35.5796 18.5448 36.0025 19.4283C36.0295 19.4847 36.0564 19.541 36.0833 19.5973C36.1605 19.7591 36.6044 19.8075 36.8732 19.8024C39.8438 19.7171 42.5847 20.4294 45.0443 22.1075C51.5432 26.5365 53.7468 35.1829 50.1139 42.3276C47.5764 47.3201 43.4994 50.5829 38.1338 52.065C28.283 54.7896 18.3811 49.8917 14.4023 40.4635C10.7692 31.8352 14.1156 21.3525 22.0841 16.4095C23.2676 15.6778 24.5521 15.9061 25.2491 16.9658C25.9588 18.0427 25.6237 19.3298 24.4424 20.1294C19.7115 23.332 17.26 27.7798 17.3789 33.5027C17.5359 41.1553 23.5601 47.5718 31.1744 48.3409C37.3699 48.9671 43.3768 45.8157 46.1252 40.4903C48.7678 35.3753 47.2094 28.8958 42.5704 25.747C41.2893 24.8748 39.876 24.3768 38.2283 24.245C38.426 24.6588 38.6208 25.0652 38.8132 25.4666Z" fill="#3D5D91"/>
</svg>
